<svg data-v-423bf9ae="" xmlns="http://www.w3.org/2000/svg" viewBox="0 0 368.2286213621835 60" class="font"><!----><!----><!----><g data-v-423bf9ae="" id="2972c377-fec8-41e6-b7c2-ff5b2dabd423" fill="white" transform="matrix(4.285714577655423,0,0,4.285714577655423,-3.471422022461155,-13.457143985008798)"><path d="M3.01 4.83L3.01 4.83L3.01 4.83Q3.01 5.88 2.81 7.60L2.81 7.60L2.81 7.60Q2.60 9.32 2.60 10.26L2.60 10.26L2.60 10.26Q2.60 11.20 3.11 11.82L3.11 11.82L3.11 11.82Q3.61 12.45 4.61 12.45L4.61 12.45L4.61 12.45Q5.01 12.45 5.59 12.25L5.59 12.25L5.59 12.25Q6.16 12.05 6.50 11.75L6.50 11.75L6.50 11.75Q6.68 10.19 6.68 7.75L6.68 7.75L6.68 7.75Q6.68 5.31 6.33 3.78L6.33 3.78L6.33 3.78Q6.78 3.61 7.28 3.61L7.28 3.61L7.28 3.61Q7.78 3.61 8.15 3.93L8.15 3.93L8.15 3.93Q8.53 4.26 8.53 4.77L8.53 4.77L8.53 4.77Q8.53 5.29 8.41 6.55L8.41 6.55L8.41 6.55Q8.29 7.81 8.29 9.37L8.29 9.37L8.29 9.37Q8.29 10.93 8.43 12.12L8.43 12.12L8.43 12.12Q6.38 13.80 4.28 13.80L4.28 13.80L4.28 13.80Q2.69 13.80 1.80 12.99L1.80 12.99L1.80 12.99Q0.91 12.17 0.91 10.61L0.91 10.61L0.91 10.61Q0.91 10.12 1.00 8.84L1.00 8.84L1.00 8.84Q1.09 7.56 1.09 6.97L1.09 6.97L1.09 6.97Q1.09 4.86 0.81 3.86L0.81 3.86L0.81 3.86Q1.26 3.70 1.76 3.70L1.76 3.70L1.76 3.70Q2.27 3.70 2.64 4.02L2.64 4.02L2.64 4.02Q3.01 4.34 3.01 4.83ZM12.08 13.47L12.08 13.47Q11.65 13.64 11.16 13.64L11.16 13.64L11.16 13.64Q10.67 13.64 10.37 13.41L10.37 13.41L10.37 13.41Q10.07 13.17 10.07 12.76L10.07 12.76L10.07 12.76Q10.07 12.35 10.19 11.26L10.19 11.26L10.19 11.26Q10.32 10.16 10.32 9.14L10.32 9.14L10.32 9.14Q10.32 8.11 10.00 6.72L10.00 6.72L10.00 6.72Q10.44 6.55 10.88 6.55L10.88 6.55L10.88 6.55Q11.31 6.55 11.63 6.85L11.63 6.85L11.63 6.85Q11.94 7.14 11.94 7.63L11.94 7.63L11.94 7.63Q11.94 7.88 11.86 8.38L11.86 8.38L11.86 8.38Q11.77 8.88 11.76 9.13L11.76 9.13L11.76 9.13Q12.31 7.88 13.05 7.18L13.05 7.18L13.05 7.18Q13.80 6.47 14.55 6.47L14.55 6.47L14.55 6.47Q15.06 6.47 15.37 6.83L15.37 6.83L15.37 6.83Q15.68 7.20 15.68 7.75L15.68 7.75L15.68 7.75Q15.68 8.30 15.40 8.64L15.40 8.64L15.40 8.64Q15.12 8.99 14.71 8.99L14.71 8.99L14.71 8.99Q14.29 8.99 14.04 8.90L14.04 8.90L14.04 8.90Q14.08 8.74 14.08 8.60L14.08 8.60L14.08 8.60Q14.08 8.02 13.68 8.02L13.68 8.02L13.68 8.02Q13.06 8.02 12.52 9.26L12.52 9.26L12.52 9.26Q11.98 10.50 11.80 11.58L11.80 11.58L11.80 11.58Q11.87 12.63 12.08 13.47L12.08 13.47ZM16.42 13.15L16.42 13.15L16.42 13.15Q16.74 10.36 16.74 9.31L16.74 9.31L16.74 9.31Q16.74 6.37 16.51 3.30L16.51 3.30L16.51 3.30Q16.93 3.14 17.40 3.14L17.40 3.14L17.40 3.14Q17.88 3.14 18.21 3.46L18.21 3.46L18.21 3.46Q18.55 3.78 18.55 4.27L18.55 4.27L18.55 4.27Q18.55 5.11 18.38 6.95L18.38 6.95L18.38 6.95Q18.21 8.79 18.17 9.41L18.17 9.41L18.17 9.41Q19.32 7.25 20.45 6.72L20.45 6.72L20.45 6.72Q20.96 6.47 21.53 6.47L21.53 6.47L21.53 6.47Q22.32 6.47 22.74 7.29L22.74 7.29L22.74 7.29Q23.17 8.12 23.17 9.31L23.17 9.31L23.17 9.31Q23.17 11.21 22.13 12.47L22.13 12.47L22.13 12.47Q21.10 13.72 19.45 13.72L19.45 13.72L19.45 13.72Q17.81 13.72 16.42 13.15ZM18.10 12.26L18.10 12.26L18.10 12.26Q18.66 12.47 19.43 12.47L19.43 12.47L19.43 12.47Q20.20 12.47 20.76 12.18L20.76 12.18L20.76 12.18Q21.45 11.00 21.45 9.62L21.45 9.62L21.45 9.62Q21.45 8.96 21.29 8.34L21.29 8.34L21.29 8.34Q21.14 7.71 20.80 7.71L20.80 7.71L20.80 7.71Q20.29 7.71 19.45 9.14L19.45 9.14L19.45 9.14Q18.61 10.57 18.10 12.26ZM30.72 7.04L30.72 7.04L30.72 7.04Q30.34 8.65 30.34 10.27L30.34 10.27L30.34 10.27Q30.34 11.89 30.70 13.47L30.70 13.47L30.70 13.47Q30.20 13.64 29.67 13.64L29.67 13.64L29.67 13.64Q29.13 13.64 28.92 13.32L28.92 13.32L28.92 13.32Q28.71 13.01 28.71 12.41L28.71 12.41L28.71 12.41Q28.71 11.82 28.90 10.78L28.90 10.78L28.90 10.78Q27.90 12.91 26.98 13.47L26.98 13.47L26.98 13.47Q26.56 13.72 26.11 13.72L26.11 13.72L26.11 13.72Q25.05 13.72 24.46 12.93L24.46 12.93L24.46 12.93Q23.87 12.14 23.87 10.96L23.87 10.96L23.87 10.96Q23.87 9.17 24.86 7.82L24.86 7.82L24.86 7.82Q25.86 6.47 27.45 6.47L27.45 6.47L27.45 6.47Q29.04 6.47 30.72 7.04ZM28.88 7.88L28.88 7.88L28.88 7.88Q28.14 7.66 27.62 7.66L27.62 7.66L27.62 7.66Q26.57 7.66 26.05 8.12L26.05 8.12L26.05 8.12Q25.58 9.30 25.58 10.51L25.58 10.51L25.58 10.51Q25.58 11.16 25.78 11.82L25.78 11.82L25.78 11.82Q25.98 12.47 26.40 12.47L26.40 12.47L26.40 12.47Q26.89 12.47 27.66 11.03L27.66 11.03L27.66 11.03Q28.43 9.59 28.88 7.88ZM38.47 7.98L38.47 7.98L38.33 11.06L38.33 11.06Q38.33 12.33 38.72 13.55L38.72 13.55L38.72 13.55Q38.33 13.72 37.83 13.72L37.83 13.72L37.83 13.72Q36.64 13.72 36.64 12.39L36.64 12.39L36.64 12.39Q36.64 11.79 36.79 10.37L36.79 10.37L36.79 10.37Q36.95 8.95 36.95 8.58L36.95 8.58L36.95 8.58Q36.95 7.88 36.32 7.88L36.32 7.88L36.32 7.88Q35.85 7.88 35.27 8.55L35.27 8.55L35.27 8.55Q34.69 9.21 34.28 10.03L34.28 10.03L34.28 10.03Q33.87 10.85 33.80 11.38L33.80 11.38L33.80 11.38Q33.85 12.47 34.08 13.47L34.08 13.47L34.08 13.47Q33.63 13.64 33.14 13.64L33.14 13.64L33.14 13.64Q32.66 13.64 32.36 13.41L32.36 13.41L32.36 13.41Q32.06 13.17 32.06 12.76L32.06 12.76L32.06 12.76Q32.06 12.35 32.19 11.28L32.19 11.28L32.19 11.28Q32.31 10.21 32.31 9.15L32.31 9.15L32.31 9.15Q32.31 8.09 31.99 6.72L31.99 6.72L31.99 6.72Q32.44 6.55 32.94 6.55L32.94 6.55L32.94 6.55Q33.45 6.55 33.76 6.85L33.76 6.85L33.76 6.85Q34.08 7.14 34.08 7.57L34.08 7.57L34.08 7.57Q34.08 8.01 33.96 8.96L33.96 8.96L33.96 8.96Q34.50 7.97 35.35 7.22L35.35 7.22L35.35 7.22Q36.20 6.47 37.06 6.47L37.06 6.47L37.06 6.47Q38.47 6.47 38.47 7.98ZM44.30 4.14L44.30 4.14L44.30 4.14Q46.31 3.61 47.81 3.61L47.81 3.61L47.81 3.61Q51.02 3.61 51.02 5.84L51.02 5.84L51.02 5.84Q51.02 7.20 49.74 7.91L49.74 7.91L49.74 7.91Q50.60 8.12 51.16 8.71L51.16 8.71L51.16 8.71Q51.72 9.31 51.72 10.21L51.72 10.21L51.72 10.21Q51.72 11.89 50.47 12.80L50.47 12.80L50.47 12.80Q49.22 13.72 47.39 13.72L47.39 13.72L47.39 13.72Q45.56 13.72 44.21 12.99L44.21 12.99L44.21 12.99Q44.65 11.48 44.65 8.91L44.65 8.91L44.65 8.91Q44.65 6.34 44.30 4.14ZM46.41 12.21L46.41 12.21L46.41 12.21Q47.03 12.40 47.64 12.40L47.64 12.40L47.64 12.40Q48.61 12.40 49.24 11.92L49.24 11.92L49.24 11.92Q49.87 11.44 49.87 10.56L49.87 10.56L49.87 10.56Q49.87 8.88 48.05 8.88L48.05 8.88L48.05 8.88Q47.18 8.88 46.28 9.24L46.28 9.24L46.28 9.24Q46.28 10.65 46.41 12.21ZM46.27 8.01L46.27 8.01L46.27 8.01Q46.47 7.97 46.85 7.91L46.85 7.91L46.85 7.91Q47.24 7.85 47.45 7.81L47.45 7.81L47.45 7.81Q47.66 7.77 47.97 7.69L47.97 7.69L47.97 7.69Q48.29 7.60 48.46 7.48L48.46 7.48L48.46 7.48Q48.64 7.36 48.82 7.18L48.82 7.18L48.82 7.18Q49.17 6.83 49.17 6.16L49.17 6.16L49.17 6.16Q49.17 4.86 47.61 4.86L47.61 4.86L47.61 4.86Q47.11 4.86 46.38 5.03L46.38 5.03L46.38 5.03Q46.27 7.90 46.27 8.01ZM59.40 7.04L59.40 7.04L59.40 7.04Q59.02 8.65 59.02 10.27L59.02 10.27L59.02 10.27Q59.02 11.89 59.39 13.47L59.39 13.47L59.39 13.47Q58.88 13.64 58.35 13.64L58.35 13.64L58.35 13.64Q57.82 13.64 57.61 13.32L57.61 13.32L57.61 13.32Q57.40 13.01 57.40 12.41L57.40 12.41L57.40 12.41Q57.40 11.82 57.58 10.78L57.58 10.78L57.58 10.78Q56.59 12.91 55.66 13.47L55.66 13.47L55.66 13.47Q55.24 13.72 54.80 13.72L54.80 13.72L54.80 13.72Q53.73 13.72 53.14 12.93L53.14 12.93L53.14 12.93Q52.56 12.14 52.56 10.96L52.56 10.96L52.56 10.96Q52.56 9.17 53.55 7.82L53.55 7.82L53.55 7.82Q54.54 6.47 56.13 6.47L56.13 6.47L56.13 6.47Q57.72 6.47 59.40 7.04ZM57.57 7.88L57.57 7.88L57.57 7.88Q56.83 7.66 56.31 7.66L56.31 7.66L56.31 7.66Q55.26 7.66 54.74 8.12L54.74 8.12L54.74 8.12Q54.26 9.30 54.26 10.51L54.26 10.51L54.26 10.51Q54.26 11.16 54.47 11.82L54.47 11.82L54.47 11.82Q54.67 12.47 55.09 12.47L55.09 12.47L55.09 12.47Q55.58 12.47 56.35 11.03L56.35 11.03L56.35 11.03Q57.12 9.59 57.57 7.88ZM67.16 7.98L67.16 7.98L67.02 11.06L67.02 11.06Q67.02 12.33 67.41 13.55L67.41 13.55L67.41 13.55Q67.02 13.72 66.51 13.72L66.51 13.72L66.51 13.72Q65.32 13.72 65.32 12.39L65.32 12.39L65.32 12.39Q65.32 11.79 65.48 10.37L65.48 10.37L65.48 10.37Q65.63 8.95 65.63 8.58L65.63 8.58L65.63 8.58Q65.63 7.88 65.00 7.88L65.00 7.88L65.00 7.88Q64.54 7.88 63.96 8.55L63.96 8.55L63.96 8.55Q63.38 9.21 62.96 10.03L62.96 10.03L62.96 10.03Q62.55 10.85 62.48 11.38L62.48 11.38L62.48 11.38Q62.54 12.47 62.76 13.47L62.76 13.47L62.76 13.47Q62.31 13.64 61.83 13.64L61.83 13.64L61.83 13.64Q61.35 13.64 61.05 13.41L61.05 13.41L61.05 13.41Q60.75 13.17 60.75 12.76L60.75 12.76L60.75 12.76Q60.75 12.35 60.87 11.28L60.87 11.28L60.87 11.28Q61.00 10.21 61.00 9.15L61.00 9.15L61.00 9.15Q61.00 8.09 60.68 6.72L60.68 6.72L60.68 6.72Q61.12 6.55 61.63 6.55L61.63 6.55L61.63 6.55Q62.13 6.55 62.45 6.85L62.45 6.85L62.45 6.85Q62.76 7.14 62.76 7.57L62.76 7.57L62.76 7.57Q62.76 8.01 62.65 8.96L62.65 8.96L62.65 8.96Q63.18 7.97 64.04 7.22L64.04 7.22L64.04 7.22Q64.89 6.47 65.74 6.47L65.74 6.47L65.74 6.47Q67.16 6.47 67.16 7.98ZM73.60 7.88L73.60 7.88L73.60 7.88Q72.86 7.66 72.13 7.66L72.13 7.66L72.13 7.66Q71.40 7.66 70.76 8.09L70.76 8.09L70.76 8.09Q70.25 9.10 70.25 10.23L70.25 10.23L70.25 10.23Q70.25 10.89 70.43 11.52L70.43 11.52L70.43 11.52Q70.62 12.14 71.04 12.14L71.04 12.14L71.04 12.14Q71.51 12.14 72.31 10.78L72.31 10.78L72.31 10.78Q73.11 9.42 73.60 7.88ZM71.50 15.93L71.50 15.93L71.50 15.93Q72.39 15.93 72.90 15.32L72.90 15.32L72.90 15.32Q73.40 14.70 73.40 13.73L73.40 13.73L73.40 13.73Q73.40 13.26 73.34 12.35L73.34 12.35L73.34 12.35Q73.28 11.44 73.26 11.06L73.26 11.06L73.26 11.06Q72.27 12.80 71.53 13.19L71.53 13.19L71.53 13.19Q71.15 13.38 70.73 13.38L70.73 13.38L70.73 13.38Q69.68 13.38 69.10 12.56L69.10 12.56L69.10 12.56Q68.53 11.73 68.53 10.54L68.53 10.54L68.53 10.54Q68.53 8.92 69.55 7.69L69.55 7.69L69.55 7.69Q70.56 6.47 72.12 6.47L72.12 6.47L72.12 6.47Q73.68 6.47 75.28 7.01L75.28 7.01L75.28 7.01Q74.86 8.51 74.86 9.95L74.86 9.95L74.86 9.95Q74.86 10.64 74.96 11.66L74.96 11.66L74.96 11.66Q75.05 12.67 75.05 13.16L75.05 13.16L75.05 13.16Q75.05 14.88 73.96 16.01L73.96 16.01L73.96 16.01Q72.87 17.14 71.16 17.14L71.16 17.14L71.16 17.14Q70.15 17.14 69.43 16.75L69.43 16.75L69.43 16.75Q68.71 16.37 68.71 15.55L68.71 15.55L68.71 15.55Q68.71 15.05 69.09 14.70L69.09 14.70L69.09 14.70Q69.47 14.35 69.99 14.35L69.99 14.35L69.99 14.35Q70.10 14.35 70.27 14.38L70.27 14.38L70.27 14.38Q70.22 14.56 70.22 14.70L70.22 14.70L70.22 14.70Q70.22 15.20 70.60 15.57L70.60 15.57L70.60 15.57Q70.98 15.93 71.50 15.93ZM76.72 3.30L76.72 3.30L76.72 3.30Q77.17 3.14 77.64 3.14L77.64 3.14L77.64 3.14Q78.12 3.14 78.43 3.45L78.43 3.45L78.43 3.45Q78.75 3.77 78.75 4.31L78.75 4.31L78.75 4.31Q78.75 4.84 78.60 6.46L78.60 6.46L78.60 6.46Q78.46 8.08 78.46 9.00L78.46 9.00L78.46 9.00Q78.46 11.28 78.78 13.47L78.78 13.47L78.78 13.47Q78.33 13.64 77.83 13.64L77.83 13.64L77.83 13.64Q76.75 13.64 76.75 12.59L76.75 12.59L76.75 12.59Q76.75 12.08 76.90 10.61L76.90 10.61L76.90 10.61Q77.06 9.13 77.06 8.23L77.06 8.23L77.06 8.23Q77.06 5.25 76.72 3.30ZM86.73 7.04L86.73 7.04L86.73 7.04Q86.35 8.65 86.35 10.27L86.35 10.27L86.35 10.27Q86.35 11.89 86.72 13.47L86.72 13.47L86.72 13.47Q86.21 13.64 85.68 13.64L85.68 13.64L85.68 13.64Q85.15 13.64 84.94 13.32L84.94 13.32L84.94 13.32Q84.73 13.01 84.73 12.41L84.73 12.41L84.73 12.41Q84.73 11.82 84.91 10.78L84.91 10.78L84.91 10.78Q83.92 12.91 82.99 13.47L82.99 13.47L82.99 13.47Q82.57 13.72 82.12 13.72L82.12 13.72L82.12 13.72Q81.06 13.72 80.47 12.93L80.47 12.93L80.47 12.93Q79.88 12.14 79.88 10.96L79.88 10.96L79.88 10.96Q79.88 9.17 80.88 7.82L80.88 7.82L80.88 7.82Q81.87 6.47 83.46 6.47L83.46 6.47L83.46 6.47Q85.05 6.47 86.73 7.04ZM84.90 7.88L84.90 7.88L84.90 7.88Q84.15 7.66 83.64 7.66L83.64 7.66L83.64 7.66Q82.59 7.66 82.07 8.12L82.07 8.12L82.07 8.12Q81.59 9.30 81.59 10.51L81.59 10.51L81.59 10.51Q81.59 11.16 81.80 11.82L81.80 11.82L81.80 11.82Q82.00 12.47 82.42 12.47L82.42 12.47L82.42 12.47Q82.91 12.47 83.68 11.03L83.68 11.03L83.68 11.03Q84.45 9.59 84.90 7.88Z"></path></g><!----><!----></svg>