<svg data-v-423bf9ae="" xmlns="http://www.w3.org/2000/svg" viewBox="0 0 526 90" class="iconLeft"><!----><defs data-v-423bf9ae=""><linearGradient data-v-423bf9ae="" gradientTransform="rotate(25)" id="b27ab020-2fc3-404b-a2f9-74e216de53f4" x1="0%" y1="0%" x2="100%" y2="0%"><stop data-v-423bf9ae="" offset="0%" style="stop-color: rgb(0, 102, 120); stop-opacity: 1;"></stop><stop data-v-423bf9ae="" offset="100%" style="stop-color: rgb(79, 168, 255); stop-opacity: 1;"></stop></linearGradient></defs><!----><g data-v-423bf9ae="" id="c0ee678a-768b-4544-b693-9fa03f997584" fill="#ffffff" transform="matrix(4.64396282087413,0,0,4.64396282087413,115.67554472360769,-0.8823541553700878)"><path d="M9.66 3.70L7.78 3.70L6.66 3.70L6.66 4.52C6.66 4.76 6.78 4.90 7.01 4.96C7.03 4.96 7.07 4.97 7.11 4.97C7.15 4.97 7.24 5.00 7.35 5.01C7.46 5.03 7.62 5.05 7.78 5.08L7.78 9.76C7.78 10.15 7.71 10.50 7.62 10.81C7.50 11.12 7.36 11.38 7.17 11.61C6.97 11.83 6.72 11.98 6.44 12.11C6.16 12.24 5.82 12.29 5.46 12.29C5.10 12.29 4.76 12.24 4.48 12.11C4.20 11.98 3.96 11.83 3.77 11.61C3.57 11.38 3.40 11.10 3.30 10.79C3.19 10.49 3.15 10.14 3.15 9.74L3.15 5.08C3.32 5.05 3.47 5.03 3.58 5.01C3.70 5.00 3.78 4.97 3.82 4.97C3.86 4.97 3.91 4.96 3.92 4.96C4.16 4.90 4.27 4.76 4.27 4.52L4.27 3.70L3.15 3.70L1.27 3.70L0.21 3.70L0.21 4.52C0.21 4.76 0.32 4.90 0.56 4.96C0.57 4.96 0.60 4.97 0.64 4.97C0.69 4.97 0.76 5.00 0.85 5.01C0.95 5.03 1.11 5.05 1.27 5.08L1.27 9.76C1.27 10.36 1.36 10.92 1.55 11.42C1.75 11.93 2.03 12.38 2.39 12.75C2.76 13.12 3.19 13.41 3.71 13.62C4.23 13.83 4.82 13.93 5.46 13.93C6.10 13.93 6.69 13.83 7.21 13.62C7.73 13.41 8.18 13.12 8.54 12.75C8.90 12.38 9.17 11.93 9.37 11.42C9.56 10.92 9.66 10.36 9.66 9.76L9.66 5.08C9.83 5.05 9.98 5.03 10.08 5.01C10.18 5.00 10.25 4.97 10.29 4.97C10.33 4.97 10.36 4.96 10.37 4.96C10.61 4.90 10.72 4.76 10.72 4.52L10.72 3.70ZM15.96 6.51C15.53 6.51 15.15 6.64 14.80 6.89C14.45 7.14 14.15 7.49 13.90 7.94L13.79 7.07C13.76 6.92 13.72 6.80 13.65 6.73C13.58 6.66 13.47 6.64 13.29 6.64L12.26 6.64L12.26 6.64L11.21 6.64L11.21 7.46C11.21 7.70 11.33 7.84 11.56 7.90C11.68 7.91 11.66 7.91 12.26 8.02L12.26 12.43C11.66 12.54 11.68 12.54 11.56 12.56C11.33 12.61 11.21 12.75 11.21 12.99L11.21 13.82L12.26 13.82L14.00 13.82L14.00 13.82L15.05 13.82L15.05 12.99C15.05 12.75 14.94 12.61 14.70 12.56C14.59 12.54 14.60 12.54 14.00 12.43L14.00 9.35C14.18 8.97 14.39 8.67 14.64 8.47C14.90 8.27 15.20 8.18 15.57 8.18C15.76 8.18 15.93 8.20 16.06 8.23C16.18 8.26 16.27 8.27 16.34 8.27C16.42 8.27 16.49 8.25 16.53 8.22C16.58 8.19 16.60 8.13 16.62 8.05L16.84 6.75C16.60 6.58 16.31 6.51 15.96 6.51ZM24.56 8.61C24.43 8.16 24.25 7.77 24.01 7.46C23.77 7.15 23.49 6.92 23.17 6.76C22.85 6.59 22.48 6.52 22.09 6.52C21.62 6.52 21.20 6.61 20.83 6.79C20.47 6.97 20.15 7.21 19.87 7.52L19.87 3.42L18.14 3.42L17.02 3.42L17.02 4.24C17.02 4.48 17.14 4.62 17.37 4.68C17.39 4.68 17.43 4.69 17.47 4.69C17.51 4.69 17.60 4.72 17.71 4.73C17.82 4.75 17.98 4.77 18.14 4.80L18.14 11.28L18.14 13.52C19.46 13.79 20.62 13.92 21.66 13.92C22.13 13.92 22.55 13.83 22.93 13.64C23.31 13.45 23.65 13.19 23.91 12.85C24.18 12.52 24.39 12.12 24.53 11.66C24.67 11.20 24.75 10.70 24.75 10.16C24.75 9.58 24.68 9.06 24.56 8.61ZM22.85 11.26C22.76 11.56 22.64 11.82 22.50 12.01C22.36 12.21 22.18 12.36 21.97 12.46C21.76 12.56 21.53 12.60 21.27 12.60C20.80 12.60 20.33 12.56 19.87 12.47L19.87 8.74C20.09 8.46 20.33 8.25 20.58 8.09C20.83 7.94 21.14 7.87 21.50 7.87C21.73 7.87 21.92 7.91 22.11 7.99C22.29 8.08 22.44 8.20 22.57 8.39C22.69 8.57 22.79 8.81 22.86 9.10C22.93 9.39 22.96 9.74 22.96 10.16C22.96 10.58 22.93 10.95 22.85 11.26ZM31.65 12.54C31.64 12.54 31.58 12.53 31.50 12.52C31.42 12.50 31.28 12.47 31.12 12.45L31.12 9.27C31.12 8.86 31.07 8.48 30.95 8.15C30.84 7.81 30.65 7.52 30.42 7.27C30.20 7.03 29.92 6.83 29.60 6.69C29.26 6.55 28.88 6.48 28.46 6.48C27.30 6.48 26.31 6.87 25.48 7.63L25.80 8.18C25.86 8.26 25.91 8.34 26.00 8.40C26.08 8.46 26.19 8.48 26.31 8.48C26.45 8.48 26.57 8.46 26.68 8.39C26.80 8.32 26.92 8.26 27.06 8.18C27.20 8.09 27.37 8.02 27.55 7.95C27.73 7.88 27.97 7.85 28.25 7.85C28.64 7.85 28.94 7.97 29.13 8.20C29.33 8.44 29.44 8.79 29.44 9.28L29.44 9.70C28.63 9.70 27.93 9.77 27.38 9.91C26.84 10.05 26.40 10.23 26.07 10.44C25.73 10.65 25.49 10.89 25.35 11.16C25.21 11.42 25.14 11.70 25.14 11.97C25.14 12.29 25.20 12.57 25.30 12.81C25.40 13.05 25.55 13.26 25.73 13.43C25.91 13.59 26.14 13.71 26.39 13.79C26.64 13.87 26.92 13.92 27.23 13.92C27.48 13.92 27.72 13.89 27.93 13.85C28.14 13.80 28.34 13.75 28.52 13.66C28.70 13.58 28.90 13.48 29.06 13.36C29.25 13.23 29.41 13.09 29.60 12.92L29.75 13.43C29.79 13.58 29.86 13.69 29.96 13.73C30.06 13.79 30.18 13.80 30.35 13.80L30.94 13.80L31.12 13.80L32.00 13.80L32.00 12.98C32.00 12.74 31.89 12.60 31.65 12.54ZM29.44 11.96C29.32 12.08 29.19 12.19 29.06 12.29C28.94 12.39 28.81 12.46 28.69 12.53C28.56 12.60 28.41 12.66 28.25 12.68C28.10 12.71 27.94 12.73 27.76 12.73C27.47 12.73 27.24 12.66 27.06 12.53C26.88 12.40 26.80 12.18 26.80 11.87C26.80 11.72 26.84 11.56 26.92 11.44C27.01 11.31 27.15 11.20 27.36 11.10C27.57 11.00 27.85 10.92 28.18 10.85C28.52 10.78 28.94 10.75 29.44 10.75ZM40.56 12.56C40.54 12.56 40.52 12.54 40.47 12.54C40.43 12.54 40.36 12.52 40.26 12.50C40.17 12.49 40.01 12.46 39.84 12.43L39.84 9.25C39.84 8.85 39.80 8.48 39.69 8.15C39.58 7.81 39.42 7.52 39.23 7.28C39.02 7.04 38.78 6.85 38.47 6.72C38.16 6.58 37.81 6.52 37.42 6.52C37.18 6.52 36.96 6.55 36.75 6.59C36.54 6.64 36.36 6.72 36.18 6.80C35.99 6.89 35.81 6.99 35.66 7.11C35.49 7.24 35.35 7.36 35.21 7.52L35.08 6.96C35.01 6.75 34.87 6.64 34.65 6.64L33.59 6.64L32.54 6.64L32.54 7.46C32.54 7.70 32.65 7.84 32.89 7.90C32.90 7.90 32.93 7.90 32.97 7.91C33.01 7.91 33.08 7.94 33.18 7.95C33.28 7.97 33.42 7.99 33.59 8.02L33.59 12.43C33.42 12.46 33.28 12.49 33.18 12.50C33.08 12.52 33.01 12.53 32.97 12.54C32.93 12.54 32.90 12.56 32.89 12.56C32.65 12.61 32.54 12.75 32.54 12.99L32.54 13.82L33.59 13.82L35.32 13.82L36.37 13.82L36.37 12.99C36.37 12.75 36.26 12.61 36.02 12.56C36.01 12.56 35.98 12.56 35.94 12.54C35.90 12.53 35.83 12.52 35.73 12.50C35.63 12.49 35.49 12.46 35.32 12.43L35.32 8.62C35.56 8.39 35.80 8.22 36.06 8.08C36.33 7.94 36.61 7.87 36.90 7.87C37.31 7.87 37.62 7.99 37.81 8.23C38.01 8.47 38.12 8.82 38.12 9.25L38.12 13.82L39.84 13.82L40.91 13.82L40.91 12.99C40.91 12.75 40.80 12.61 40.56 12.56ZM51.16 8.58C51.46 8.47 51.73 8.34 51.95 8.19C52.18 8.04 52.36 7.88 52.51 7.69C52.65 7.50 52.78 7.29 52.85 7.07C52.92 6.85 52.95 6.62 52.95 6.38C52.95 5.96 52.88 5.61 52.74 5.28C52.60 4.94 52.39 4.66 52.08 4.42C51.79 4.19 51.39 4.00 50.92 3.88C50.44 3.75 49.88 3.70 49.22 3.70L45.74 3.70L44.67 3.70L44.67 4.52C44.67 4.76 44.79 4.90 45.02 4.96C45.04 4.96 45.07 4.97 45.11 4.97C45.15 4.97 45.22 5.00 45.32 5.01C45.42 5.03 45.57 5.05 45.74 5.08L45.74 12.43C45.57 12.46 45.42 12.49 45.32 12.50C45.22 12.52 45.15 12.54 45.11 12.54C45.07 12.54 45.04 12.56 45.02 12.56C44.79 12.61 44.67 12.75 44.67 12.99L44.67 13.82L45.74 13.82L49.56 13.82C50.15 13.82 50.67 13.75 51.13 13.59C51.59 13.44 51.97 13.24 52.28 12.98C52.58 12.71 52.82 12.39 52.99 12.03C53.16 11.66 53.24 11.27 53.24 10.84C53.24 9.65 52.54 8.89 51.16 8.58ZM47.61 5.15L49.22 5.15C49.85 5.15 50.33 5.26 50.62 5.49C50.92 5.71 51.07 6.08 51.07 6.61C51.07 7.11 50.92 7.49 50.58 7.73C50.25 7.97 49.77 8.08 49.13 8.08L47.61 8.08ZM51.28 11.40C51.23 11.58 51.11 11.75 50.97 11.89C50.83 12.03 50.65 12.14 50.41 12.22C50.18 12.31 49.88 12.35 49.53 12.35L47.61 12.35L47.61 9.38L49.52 9.38C49.85 9.38 50.13 9.41 50.37 9.48C50.61 9.55 50.79 9.63 50.95 9.76C51.10 9.88 51.20 10.04 51.27 10.21C51.34 10.39 51.38 10.57 51.38 10.79C51.38 11.00 51.35 11.21 51.28 11.40ZM60.12 12.54C60.10 12.54 60.05 12.53 59.96 12.52C59.88 12.50 59.74 12.47 59.58 12.45L59.58 9.27C59.58 8.86 59.53 8.48 59.42 8.15C59.30 7.81 59.11 7.52 58.88 7.27C58.66 7.03 58.38 6.83 58.06 6.69C57.72 6.55 57.34 6.48 56.92 6.48C55.76 6.48 54.77 6.87 53.94 7.63L54.26 8.18C54.32 8.26 54.38 8.34 54.46 8.40C54.54 8.46 54.66 8.48 54.77 8.48C54.91 8.48 55.03 8.46 55.15 8.39C55.26 8.32 55.38 8.26 55.52 8.18C55.66 8.09 55.83 8.02 56.01 7.95C56.20 7.88 56.43 7.85 56.71 7.85C57.11 7.85 57.40 7.97 57.60 8.20C57.79 8.44 57.90 8.79 57.90 9.28L57.90 9.70C57.09 9.70 56.39 9.77 55.85 9.91C55.30 10.05 54.87 10.23 54.53 10.44C54.19 10.65 53.96 10.89 53.82 11.16C53.68 11.42 53.61 11.70 53.61 11.97C53.61 12.29 53.66 12.57 53.76 12.81C53.86 13.05 54.01 13.26 54.19 13.43C54.38 13.59 54.60 13.71 54.85 13.79C55.10 13.87 55.38 13.92 55.69 13.92C55.94 13.92 56.18 13.89 56.39 13.85C56.60 13.80 56.80 13.75 56.98 13.66C57.16 13.58 57.36 13.48 57.53 13.36C57.71 13.23 57.88 13.09 58.06 12.92L58.21 13.43C58.25 13.58 58.32 13.69 58.42 13.73C58.52 13.79 58.65 13.80 58.81 13.80L59.40 13.80L59.58 13.80L60.47 13.80L60.47 12.98C60.47 12.74 60.35 12.60 60.12 12.54ZM57.90 11.96C57.78 12.08 57.65 12.19 57.53 12.29C57.40 12.39 57.27 12.46 57.15 12.53C57.02 12.60 56.87 12.66 56.71 12.68C56.56 12.71 56.41 12.73 56.22 12.73C55.93 12.73 55.71 12.66 55.52 12.53C55.34 12.40 55.26 12.18 55.26 11.87C55.26 11.72 55.30 11.56 55.38 11.44C55.47 11.31 55.61 11.20 55.82 11.10C56.03 11.00 56.31 10.92 56.64 10.85C56.98 10.78 57.40 10.75 57.90 10.75ZM69.02 12.56C69.01 12.56 68.98 12.54 68.94 12.54C68.89 12.54 68.82 12.52 68.73 12.50C68.63 12.49 68.47 12.46 68.31 12.43L68.31 9.25C68.31 8.85 68.26 8.48 68.15 8.15C68.04 7.81 67.89 7.52 67.69 7.28C67.48 7.04 67.24 6.85 66.93 6.72C66.63 6.58 66.28 6.52 65.88 6.52C65.65 6.52 65.42 6.55 65.21 6.59C65.00 6.64 64.82 6.72 64.64 6.80C64.46 6.89 64.27 6.99 64.12 7.11C63.95 7.24 63.81 7.36 63.67 7.52L63.55 6.96C63.48 6.75 63.34 6.64 63.11 6.64L62.05 6.64L61.00 6.64L61.00 7.46C61.00 7.70 61.11 7.84 61.35 7.90C61.36 7.90 61.39 7.90 61.43 7.91C61.47 7.91 61.54 7.94 61.64 7.95C61.74 7.97 61.88 7.99 62.05 8.02L62.05 12.43C61.88 12.46 61.74 12.49 61.64 12.50C61.54 12.52 61.47 12.53 61.43 12.54C61.39 12.54 61.36 12.56 61.35 12.56C61.11 12.61 61.00 12.75 61.00 12.99L61.00 13.82L62.05 13.82L63.78 13.82L64.83 13.82L64.83 12.99C64.83 12.75 64.72 12.61 64.48 12.56C64.47 12.56 64.44 12.56 64.40 12.54C64.36 12.53 64.29 12.52 64.19 12.50C64.09 12.49 63.95 12.46 63.78 12.43L63.78 8.62C64.02 8.39 64.26 8.22 64.53 8.08C64.79 7.94 65.07 7.87 65.37 7.87C65.77 7.87 66.08 7.99 66.28 8.23C66.47 8.47 66.58 8.82 66.58 9.25L66.58 13.82L68.31 13.82L69.37 13.82L69.37 12.99C69.37 12.75 69.26 12.61 69.02 12.56ZM73.04 6.51C72.63 6.51 72.24 6.57 71.89 6.68C71.54 6.79 71.25 6.94 70.99 7.14C70.74 7.34 70.53 7.59 70.39 7.87C70.25 8.15 70.18 8.48 70.18 8.83C70.18 9.27 70.28 9.66 70.49 9.98C70.70 10.30 70.99 10.57 71.36 10.77C71.20 10.85 71.05 10.93 70.94 11.03C70.83 11.13 70.73 11.24 70.64 11.35C70.56 11.47 70.52 11.58 70.48 11.69C70.43 11.80 70.42 11.91 70.42 12.03C70.42 12.29 70.48 12.50 70.59 12.67C70.70 12.84 70.83 12.96 71.01 13.06C70.64 13.20 70.36 13.37 70.15 13.59C69.94 13.82 69.85 14.11 69.85 14.45C69.85 14.70 69.92 14.94 70.04 15.16C70.17 15.39 70.36 15.60 70.63 15.76C70.90 15.93 71.22 16.07 71.62 16.18C72.03 16.30 72.51 16.34 73.05 16.34C73.60 16.34 74.09 16.27 74.52 16.13C74.96 15.99 75.32 15.81 75.61 15.57C75.91 15.33 76.13 15.06 76.29 14.77C76.44 14.48 76.52 14.17 76.52 13.85C76.52 13.51 76.47 13.23 76.33 13.01C76.19 12.78 76.02 12.63 75.80 12.50C75.57 12.38 75.35 12.28 75.07 12.22C74.79 12.17 74.51 12.12 74.21 12.10C73.92 12.07 73.65 12.07 73.37 12.05C73.09 12.05 72.86 12.03 72.63 12.00C72.41 11.97 72.24 11.93 72.10 11.86C71.96 11.79 71.90 11.68 71.90 11.54C71.90 11.37 72.02 11.23 72.24 11.09C72.49 11.14 72.77 11.16 73.04 11.16C73.44 11.16 73.81 11.10 74.14 10.99C74.48 10.88 74.79 10.72 75.04 10.53C75.29 10.33 75.49 10.08 75.63 9.80C75.77 9.52 75.84 9.18 75.84 8.83C75.84 8.68 75.82 8.55 75.80 8.41C75.77 8.27 75.74 8.15 75.70 8.02L76.34 7.91C76.48 7.88 76.57 7.84 76.62 7.78C76.68 7.73 76.71 7.64 76.71 7.53L76.71 6.89L74.65 6.89C74.42 6.76 74.17 6.66 73.91 6.61C73.64 6.55 73.35 6.51 73.04 6.51ZM74.93 14.14C74.93 14.28 74.90 14.42 74.83 14.53C74.76 14.64 74.65 14.76 74.49 14.84C74.34 14.92 74.16 14.98 73.92 15.04C73.68 15.09 73.40 15.12 73.08 15.12C72.76 15.12 72.51 15.09 72.28 15.05C72.06 15.01 71.88 14.95 71.74 14.87C71.60 14.78 71.50 14.69 71.44 14.57C71.39 14.46 71.34 14.35 71.34 14.22C71.34 14.03 71.41 13.86 71.53 13.72C71.64 13.58 71.81 13.45 72.00 13.34C72.21 13.37 72.44 13.38 72.66 13.40C72.88 13.41 73.11 13.41 73.33 13.43C73.56 13.44 73.75 13.45 73.95 13.48C74.14 13.51 74.33 13.54 74.47 13.59C74.61 13.65 74.72 13.72 74.80 13.80C74.89 13.89 74.93 14 74.93 14.14ZM73.04 10.05C72.83 10.05 72.65 10.02 72.48 9.97C72.31 9.91 72.18 9.83 72.07 9.72C71.96 9.60 71.89 9.49 71.83 9.35C71.78 9.21 71.76 9.04 71.76 8.88C71.76 8.53 71.86 8.25 72.07 8.04C72.28 7.83 72.62 7.73 73.04 7.73C73.46 7.73 73.78 7.83 73.99 8.04C74.20 8.25 74.31 8.53 74.31 8.88C74.31 9.04 74.28 9.21 74.23 9.35C74.17 9.49 74.10 9.63 73.99 9.73C73.89 9.83 73.75 9.91 73.60 9.97C73.44 10.02 73.25 10.05 73.04 10.05ZM80.68 12.56C80.67 12.56 80.64 12.56 80.60 12.54C80.56 12.53 80.49 12.52 80.39 12.50C80.29 12.49 80.14 12.46 79.97 12.43L79.97 3.42L78.25 3.42L77.18 3.42L77.18 4.24C77.18 4.48 77.29 4.62 77.53 4.68C77.55 4.68 77.57 4.69 77.62 4.69C77.66 4.69 77.73 4.72 77.83 4.73C77.92 4.75 78.08 4.77 78.25 4.80L78.25 12.43C78.08 12.46 77.92 12.49 77.83 12.50C77.73 12.52 77.66 12.53 77.62 12.54C77.57 12.56 77.55 12.56 77.53 12.56C77.29 12.61 77.18 12.75 77.18 12.99L77.18 13.82L78.25 13.82L79.97 13.82L81.03 13.82L81.03 12.99C81.03 12.75 80.92 12.61 80.68 12.56ZM87.96 12.54C87.95 12.54 87.89 12.53 87.81 12.52C87.72 12.50 87.58 12.47 87.43 12.45L87.43 9.27C87.43 8.86 87.37 8.48 87.26 8.15C87.15 7.81 86.95 7.52 86.73 7.27C86.51 7.03 86.23 6.83 85.90 6.69C85.57 6.55 85.19 6.48 84.77 6.48C83.61 6.48 82.61 6.87 81.79 7.63L82.11 8.18C82.17 8.26 82.22 8.34 82.31 8.40C82.39 8.46 82.50 8.48 82.61 8.48C82.75 8.48 82.88 8.46 82.99 8.39C83.10 8.32 83.23 8.26 83.37 8.18C83.51 8.09 83.68 8.02 83.86 7.95C84.04 7.88 84.28 7.85 84.56 7.85C84.95 7.85 85.25 7.97 85.44 8.20C85.64 8.44 85.75 8.79 85.75 9.28L85.75 9.70C84.94 9.70 84.24 9.77 83.69 9.91C83.15 10.05 82.71 10.23 82.38 10.44C82.04 10.65 81.80 10.89 81.66 11.16C81.52 11.42 81.45 11.70 81.45 11.97C81.45 12.29 81.51 12.57 81.61 12.81C81.70 13.05 81.86 13.26 82.04 13.43C82.22 13.59 82.45 13.71 82.70 13.79C82.95 13.87 83.23 13.92 83.54 13.92C83.79 13.92 84.03 13.89 84.24 13.85C84.45 13.80 84.64 13.75 84.83 13.66C85.01 13.58 85.20 13.48 85.37 13.36C85.55 13.23 85.72 13.09 85.90 12.92L86.06 13.43C86.10 13.58 86.17 13.69 86.27 13.73C86.37 13.79 86.49 13.80 86.66 13.80L87.25 13.80L87.43 13.80L88.31 13.80L88.31 12.98C88.31 12.74 88.20 12.60 87.96 12.54ZM85.75 11.96C85.62 12.08 85.50 12.19 85.37 12.29C85.25 12.39 85.12 12.46 84.99 12.53C84.87 12.60 84.71 12.66 84.56 12.68C84.41 12.71 84.25 12.73 84.07 12.73C83.78 12.73 83.55 12.66 83.37 12.53C83.19 12.40 83.10 12.18 83.10 11.87C83.10 11.72 83.15 11.56 83.23 11.44C83.31 11.31 83.45 11.20 83.66 11.10C83.87 11.00 84.15 10.92 84.49 10.85C84.83 10.78 85.25 10.75 85.75 10.75Z"></path></g><!----><g data-v-423bf9ae="" id="b60fb8b8-d4f5-4cef-973f-ae4735260ac0" transform="matrix(3.02033690133878,0,0,3.02033690133878,0.6746095785795205,-6.44676146975133)" stroke="none" fill="#ffffff"><circle cx="25.044" cy="25.043" r="6.956"></circle><circle cx="6.956" cy="25.043" r="6.956"></circle><path d="M.172 2.201H13.74v13.568H.172zM18.432 2.201H32v13.568H18.432z"></path></g><!----></svg>